<mxfile host="app.diagrams.net" modified="2023-06-21T21:20:48.119Z" agent="Mozilla/5.0 (Windows NT 10.0; Win64; x64) AppleWebKit/537.36 (KHTML, like Gecko) Chrome/114.0.0.0 Safari/537.36" etag="Vwwe2Id46MveL6q3SSUw" version="21.4.0" type="github">
  <diagram name="Página-1" id="ruM5xchl-NqQhUvqFfxk">
    <mxGraphModel dx="478" dy="309" grid="1" gridSize="10" guides="1" tooltips="1" connect="1" arrows="1" fold="1" page="1" pageScale="1" pageWidth="827" pageHeight="1169" math="0" shadow="0">
      <root>
        <mxCell id="0" />
        <mxCell id="1" parent="0" />
        <mxCell id="rKhhWRoeP63D0-UZ0MQr-3" value="plano ficticio" style="shape=cube;whiteSpace=wrap;html=1;boundedLbl=1;backgroundOutline=1;darkOpacity=0.05;darkOpacity2=0.1;size=2;verticalAlign=top;" vertex="1" parent="1">
          <mxGeometry x="330" y="430" width="240" height="180" as="geometry" />
        </mxCell>
        <mxCell id="rKhhWRoeP63D0-UZ0MQr-23" value="Barra de herramientas" style="rounded=1;strokeColor=#4D4D4D;fontStyle=0;fillColor=#E6E6E6;fontSize=7;fontFamily=Helvetica;fontColor=default;" vertex="1" parent="1">
          <mxGeometry x="360" y="550" width="83" height="12" as="geometry" />
        </mxCell>
        <mxCell id="rKhhWRoeP63D0-UZ0MQr-9" style="rounded=0;orthogonalLoop=1;jettySize=auto;html=1;exitX=0.75;exitY=0.1;exitDx=0;exitDy=0;exitPerimeter=0;entryX=0.991;entryY=0.017;entryDx=0;entryDy=0;entryPerimeter=0;endArrow=none;endFill=0;strokeWidth=1;dashed=1;dashPattern=1 4;fillColor=#fff2cc;strokeColor=#d6b656;" edge="1" parent="1" source="rKhhWRoeP63D0-UZ0MQr-1" target="rKhhWRoeP63D0-UZ0MQr-3">
          <mxGeometry relative="1" as="geometry" />
        </mxCell>
        <mxCell id="rKhhWRoeP63D0-UZ0MQr-11" style="edgeStyle=none;shape=connector;rounded=0;orthogonalLoop=1;jettySize=auto;html=1;entryX=0;entryY=0;entryDx=2;entryDy=180;entryPerimeter=0;dashed=1;dashPattern=1 4;labelBackgroundColor=default;strokeColor=#d6b656;strokeWidth=1;fontFamily=Helvetica;fontSize=11;fontColor=default;endArrow=none;endFill=0;exitX=0.25;exitY=0.1;exitDx=0;exitDy=0;exitPerimeter=0;fillColor=#fff2cc;" edge="1" parent="1" source="rKhhWRoeP63D0-UZ0MQr-1" target="rKhhWRoeP63D0-UZ0MQr-3">
          <mxGeometry relative="1" as="geometry" />
        </mxCell>
        <mxCell id="rKhhWRoeP63D0-UZ0MQr-13" style="edgeStyle=none;shape=connector;rounded=0;orthogonalLoop=1;jettySize=auto;html=1;entryX=1;entryY=1;entryDx=0;entryDy=0;entryPerimeter=0;dashed=1;dashPattern=1 4;labelBackgroundColor=default;strokeColor=#d6b656;strokeWidth=1;fontFamily=Helvetica;fontSize=11;fontColor=default;endArrow=none;endFill=0;exitX=0.75;exitY=0.1;exitDx=0;exitDy=0;exitPerimeter=0;fillColor=#fff2cc;" edge="1" parent="1" source="rKhhWRoeP63D0-UZ0MQr-1" target="rKhhWRoeP63D0-UZ0MQr-3">
          <mxGeometry relative="1" as="geometry" />
        </mxCell>
        <mxCell id="rKhhWRoeP63D0-UZ0MQr-1" value="rig" style="shape=umlActor;verticalLabelPosition=bottom;verticalAlign=top;html=1;outlineConnect=0;fillColor=#dae8fc;strokeColor=#6c8ebf;spacingBottom=0;spacingTop=-6;" vertex="1" parent="1">
          <mxGeometry x="500" y="530" width="30" height="60" as="geometry" />
        </mxCell>
        <mxCell id="rKhhWRoeP63D0-UZ0MQr-7" value="" style="ellipse;verticalLabelPosition=middle;labelBackgroundColor=none;verticalAlign=middle;shadow=0;dashed=0;strokeWidth=0.5;labelPosition=left;align=right;fontStyle=0;strokeColor=#FFAD00;fillColor=#FFF2CC;fontSize=6;spacingBottom=3;noLabel=0;snapToPoint=0;container=0;backgroundOutline=0;movableLabel=0;comic=0;enumerate=0;treeMoving=0;" vertex="1" parent="1">
          <mxGeometry x="430" y="518" width="4" height="4" as="geometry" />
        </mxCell>
        <mxCell id="rKhhWRoeP63D0-UZ0MQr-8" value="" style="rounded=0;orthogonalLoop=1;jettySize=auto;html=1;exitX=0;exitY=0.3333333333333333;exitDx=0;exitDy=0;exitPerimeter=0;fontSize=6;labelPosition=right;verticalLabelPosition=middle;align=left;verticalAlign=middle;horizontal=1;endArrow=none;endFill=0;fillColor=#f8cecc;strokeColor=#b85450;" edge="1" parent="1" source="rKhhWRoeP63D0-UZ0MQr-1">
          <mxGeometry x="-0.1324" y="3" relative="1" as="geometry">
            <mxPoint x="432" y="520" as="targetPoint" />
            <mxPoint as="offset" />
          </mxGeometry>
        </mxCell>
        <mxCell id="rKhhWRoeP63D0-UZ0MQr-12" style="edgeStyle=none;shape=connector;rounded=0;orthogonalLoop=1;jettySize=auto;html=1;exitX=0.25;exitY=0.1;exitDx=0;exitDy=0;exitPerimeter=0;entryX=0;entryY=0;entryDx=0;entryDy=0;entryPerimeter=0;dashed=1;dashPattern=1 4;labelBackgroundColor=default;strokeColor=#d6b656;strokeWidth=1;fontFamily=Helvetica;fontSize=11;fontColor=default;endArrow=none;endFill=0;fillColor=#fff2cc;" edge="1" parent="1" source="rKhhWRoeP63D0-UZ0MQr-1" target="rKhhWRoeP63D0-UZ0MQr-3">
          <mxGeometry relative="1" as="geometry" />
        </mxCell>
        <mxCell id="rKhhWRoeP63D0-UZ0MQr-27" style="edgeStyle=none;shape=connector;rounded=0;orthogonalLoop=1;jettySize=auto;html=1;exitX=1;exitY=0;exitDx=0;exitDy=0;entryX=0;entryY=1;entryDx=0;entryDy=0;labelBackgroundColor=default;strokeColor=#6c8ebf;strokeWidth=0.5;fontFamily=Helvetica;fontSize=11;fontColor=default;endArrow=classic;endFill=1;fillColor=#dae8fc;" edge="1" parent="1" source="rKhhWRoeP63D0-UZ0MQr-24" target="rKhhWRoeP63D0-UZ0MQr-7">
          <mxGeometry relative="1" as="geometry" />
        </mxCell>
        <mxCell id="rKhhWRoeP63D0-UZ0MQr-24" value="" style="ellipse;verticalLabelPosition=top;labelBackgroundColor=none;verticalAlign=bottom;shadow=0;dashed=0;strokeWidth=0.5;labelPosition=center;align=left;fontStyle=0;strokeColor=#FFAD00;fillColor=#FFF2CC;fontSize=6;spacingBottom=3;noLabel=0;snapToPoint=0;container=0;backgroundOutline=0;movableLabel=0;comic=0;enumerate=0;treeMoving=0;" vertex="1" parent="1">
          <mxGeometry x="362" y="550" width="4" height="4" as="geometry" />
        </mxCell>
        <mxCell id="rKhhWRoeP63D0-UZ0MQr-26" style="edgeStyle=orthogonalEdgeStyle;shape=connector;rounded=1;orthogonalLoop=1;jettySize=auto;html=1;entryX=0;entryY=0.5;entryDx=0;entryDy=0;labelBackgroundColor=default;strokeColor=#666666;strokeWidth=0.5;fontFamily=Helvetica;fontSize=11;fontColor=default;endArrow=classic;endFill=1;startSize=6;jumpSize=6;fillColor=#f5f5f5;exitX=0.5;exitY=0;exitDx=0;exitDy=0;" edge="1" parent="1" source="rKhhWRoeP63D0-UZ0MQr-25" target="rKhhWRoeP63D0-UZ0MQr-24">
          <mxGeometry relative="1" as="geometry">
            <mxPoint x="299.8139534883721" y="570" as="sourcePoint" />
            <Array as="points">
              <mxPoint x="350" y="552" />
            </Array>
          </mxGeometry>
        </mxCell>
        <mxCell id="rKhhWRoeP63D0-UZ0MQr-25" value="punto de intersección inicial" style="text;html=1;strokeColor=none;fillColor=none;align=center;verticalAlign=middle;whiteSpace=wrap;rounded=0;fontSize=6;fontFamily=Helvetica;fontColor=default;" vertex="1" parent="1">
          <mxGeometry x="330" y="573" width="40" height="20" as="geometry" />
        </mxCell>
        <mxCell id="rKhhWRoeP63D0-UZ0MQr-28" value="vector desplazamiento" style="text;html=1;strokeColor=none;fillColor=none;align=center;verticalAlign=middle;whiteSpace=wrap;rounded=0;fontSize=5;fontFamily=Helvetica;fontColor=default;rotation=-24.6;" vertex="1" parent="1">
          <mxGeometry x="361" y="528" width="66" height="10" as="geometry" />
        </mxCell>
        <mxCell id="rKhhWRoeP63D0-UZ0MQr-31" style="edgeStyle=none;shape=connector;rounded=1;orthogonalLoop=1;jettySize=auto;html=1;exitX=1;exitY=0.5;exitDx=0;exitDy=0;entryX=0;entryY=0;entryDx=0;entryDy=0;labelBackgroundColor=default;strokeColor=#666666;strokeWidth=0.5;fontFamily=Helvetica;fontSize=11;fontColor=default;endArrow=classic;endFill=1;startSize=6;fillColor=#f5f5f5;" edge="1" parent="1" source="rKhhWRoeP63D0-UZ0MQr-30" target="rKhhWRoeP63D0-UZ0MQr-7">
          <mxGeometry relative="1" as="geometry" />
        </mxCell>
        <mxCell id="rKhhWRoeP63D0-UZ0MQr-30" value="punto de intersección final" style="text;html=1;strokeColor=none;fillColor=none;align=center;verticalAlign=middle;whiteSpace=wrap;rounded=0;fontSize=6;fontFamily=Helvetica;fontColor=default;" vertex="1" parent="1">
          <mxGeometry x="334" y="508" width="36" height="10" as="geometry" />
        </mxCell>
        <mxCell id="rKhhWRoeP63D0-UZ0MQr-32" value="" style="rounded=0;orthogonalLoop=1;jettySize=auto;html=1;fontSize=6;labelPosition=right;verticalLabelPosition=middle;align=left;verticalAlign=middle;horizontal=1;endArrow=none;endFill=0;fillColor=#f8cecc;strokeColor=#b85450;" edge="1" parent="1">
          <mxGeometry x="-0.1324" y="3" relative="1" as="geometry">
            <mxPoint x="330" y="472" as="sourcePoint" />
            <mxPoint x="296" y="457" as="targetPoint" />
            <mxPoint as="offset" />
          </mxGeometry>
        </mxCell>
        <mxCell id="rKhhWRoeP63D0-UZ0MQr-33" value="raycaster" style="text;html=1;strokeColor=none;fillColor=none;align=center;verticalAlign=middle;whiteSpace=wrap;rounded=0;fontSize=5;fontFamily=Helvetica;fontColor=default;rotation=25;" vertex="1" parent="1">
          <mxGeometry x="449" y="525" width="36" height="10" as="geometry" />
        </mxCell>
        <mxCell id="rKhhWRoeP63D0-UZ0MQr-35" value="raycaster" style="text;html=1;strokeColor=none;fillColor=none;align=center;verticalAlign=middle;whiteSpace=wrap;rounded=0;fontSize=5;fontFamily=Helvetica;fontColor=default;rotation=25;" vertex="1" parent="1">
          <mxGeometry x="297" y="454" width="36" height="10" as="geometry" />
        </mxCell>
        <mxCell id="rKhhWRoeP63D0-UZ0MQr-37" style="edgeStyle=none;shape=connector;rounded=0;orthogonalLoop=1;jettySize=auto;html=1;dashed=1;dashPattern=1 4;labelBackgroundColor=default;strokeColor=default;strokeWidth=1;fontFamily=Helvetica;fontSize=11;fontColor=default;endArrow=none;endFill=0;" edge="1" parent="1" source="rKhhWRoeP63D0-UZ0MQr-36" target="rKhhWRoeP63D0-UZ0MQr-1">
          <mxGeometry relative="1" as="geometry" />
        </mxCell>
        <mxCell id="rKhhWRoeP63D0-UZ0MQr-36" value="Cámara&lt;br&gt;principal" style="text;html=1;strokeColor=none;fillColor=none;align=center;verticalAlign=middle;whiteSpace=wrap;rounded=0;fontSize=6;fontFamily=Helvetica;fontColor=default;" vertex="1" parent="1">
          <mxGeometry x="494" y="480" width="36" height="20" as="geometry" />
        </mxCell>
      </root>
    </mxGraphModel>
  </diagram>
</mxfile>
